<?xml version="1.0" encoding="UTF-8" standalone="no"?>
<svg
   xmlns:dc="http://purl.org/dc/elements/1.1/"
   xmlns:cc="http://creativecommons.org/ns#"
   xmlns:rdf="http://www.w3.org/1999/02/22-rdf-syntax-ns#"
   xmlns:svg="http://www.w3.org/2000/svg"
   xmlns="http://www.w3.org/2000/svg"
   xmlns:sodipodi="http://sodipodi.sourceforge.net/DTD/sodipodi-0.dtd"
   xmlns:inkscape="http://www.inkscape.org/namespaces/inkscape"
   width="512px"
   height="512px"
   viewBox="0 0 512 512"
   version="1.1"
   id="svg4"
   sodipodi:docname="broken-shield.svg"
   inkscape:version="1.0.1 (3bc2e813f5, 2020-09-07)">
  <metadata
     id="metadata10">
    <rdf:RDF>
      <cc:Work
         rdf:about="">
        <dc:format>image/svg+xml</dc:format>
        <dc:type
           rdf:resource="http://purl.org/dc/dcmitype/StillImage" />
        <dc:title></dc:title>
      </cc:Work>
    </rdf:RDF>
  </metadata>
  <defs
     id="defs8" />
  <sodipodi:namedview
     pagecolor="#ffffff"
     bordercolor="#666666"
     borderopacity="1"
     objecttolerance="10"
     gridtolerance="10"
     guidetolerance="10"
     inkscape:pageopacity="0"
     inkscape:pageshadow="2"
     inkscape:window-width="3440"
     inkscape:window-height="1361"
     id="namedview6"
     showgrid="false"
     inkscape:zoom="1.96875"
     inkscape:cx="228.31746"
     inkscape:cy="256"
     inkscape:window-x="2391"
     inkscape:window-y="-9"
     inkscape:window-maximized="1"
     inkscape:current-layer="svg4" />
  <path
     fill="#000"
     d="M45.906 23.625v9.344c0 102.68 10.49 205.087 41.125 288.155 30.637 83.068 82.364 147.415 163.75 169.78l2.22.626 2.22-.5C344.49 472 396.864 407.39 425.593 323.47c28.728-83.92 35.25-187.777 35.25-290.5v-9.345H45.906zM64.72 42.313H442.06c-.413 98.8-7.497 197.342-34.125 275.125-27.21 79.487-73.39 136.637-154.375 154.78-73.28-21.03-119.914-78.696-149-157.562-28.475-77.212-39.206-174.13-39.843-272.344zm18.81 18.75c.807 84.13 12.486 172.823 39.314 244.812 7.825 20.998 16.874 40.495 27.25 58.063l45.844-38.438-40.75-75.063-5.47-10.062 10.97-3.344s38.865-11.786 60.406-18.25l20.437-7.25-94.843-150.468H83.53zm160.25 0l45.782 91.5 132.407-43.157c.69-16.205 1.053-32.366 1.155-48.344H243.78zm177.157 68.343L298.031 169.47l24.908 49.78 25.875 48.72 53.28-1.845c10.245-42.834 16.03-89.664 18.844-136.72zM310.908 236.47l-30.75 10.374 67.25 145.187c17.813-23.2 31.737-51.6 42.624-83.686 2.578-7.595 4.966-15.39 7.19-23.344l-53.626 1.844-5.844.22-2.75-5.158-24.094-45.437zm-99.22 4.686c-13.133 3.972-27.346 8.262-34.625 10.47L216 323.28l3.625 6.72-5.844 4.906-53.56 44.906c24.67 35.91 55.887 61.828 94.655 73.125 30.34-6.91 55.36-21.496 76.03-42.062L211.69 241.155z"
     id="path2"
     style="fill:#ffffff;fill-opacity:1" />
</svg>
