<?xml version="1.0" encoding="UTF-8" standalone="no"?>
<svg
   xmlns:dc="http://purl.org/dc/elements/1.1/"
   xmlns:cc="http://creativecommons.org/ns#"
   xmlns:rdf="http://www.w3.org/1999/02/22-rdf-syntax-ns#"
   xmlns:svg="http://www.w3.org/2000/svg"
   xmlns="http://www.w3.org/2000/svg"
   xmlns:sodipodi="http://sodipodi.sourceforge.net/DTD/sodipodi-0.dtd"
   xmlns:inkscape="http://www.inkscape.org/namespaces/inkscape"
   width="512px"
   height="512px"
   viewBox="0 0 512 512"
   version="1.1"
   id="svg1414"
   sodipodi:docname="criticalfail_rangedcombat.svg"
   inkscape:version="1.0.1 (3bc2e813f5, 2020-09-07)">
  <metadata
     id="metadata1420">
    <rdf:RDF>
      <cc:Work
         rdf:about="">
        <dc:format>image/svg+xml</dc:format>
        <dc:type
           rdf:resource="http://purl.org/dc/dcmitype/StillImage" />
        <dc:title />
      </cc:Work>
    </rdf:RDF>
  </metadata>
  <defs
     id="defs1418" />
  <sodipodi:namedview
     pagecolor="#ff94f7"
     bordercolor="#666666"
     borderopacity="1"
     objecttolerance="10"
     gridtolerance="10"
     guidetolerance="10"
     inkscape:pageopacity="0"
     inkscape:pageshadow="2"
     inkscape:window-width="2400"
     inkscape:window-height="1271"
     id="namedview1416"
     showgrid="false"
     inkscape:pagecheckerboard="true"
     inkscape:zoom="1.2988281"
     inkscape:cx="256"
     inkscape:cy="256"
     inkscape:window-x="-9"
     inkscape:window-y="-9"
     inkscape:window-maximized="1"
     inkscape:current-layer="svg1414"
     inkscape:document-rotation="0" />
  <g
     id="g1535"
     transform="translate(41.069757,41.070281)"
     style="fill:#ffffff;fill-opacity:1">
    <path
       id="XMLID_445_"
       d="m 92.411,347.452 v 72.408 c 0,5.523 -4.477,10 -10,10 -5.523,0 -10,-4.477 -10,-10 v -48.267 l -55.08,55.079 c -3.904,3.905 -10.237,3.905 -14.142,0 -3.905,-3.905 -3.905,-10.237 0,-14.143 l 55.08,-55.079 -48.267,-10e-4 c -5.523,0 -10,-4.478 -10,-10 0,-5.522 4.478,-10 10,-10 l 72.409,10e-4 c 5.523,0.002 10,4.479 10,10.002 z m 279.182,10 48.267,-10e-4 c 5.522,0 10,-4.478 10,-10 0,-5.523 -4.478,-10 -10,-10 l -72.409,10e-4 c -5.523,0 -10,4.477 -10,10 v 72.408 c 0,5.523 4.477,10 10,10 5.523,0 10,-4.477 10,-10 v -48.267 l 55.079,55.08 c 3.905,3.905 10.238,3.905 14.142,0 3.905,-3.905 3.905,-10.237 0,-14.143 z m 4.735,-43.534 -62.411,0.002 v 62.408 c 0,5.523 -4.477,10 -10,10 -5.523,0 -10,-4.477 -10,-10 v -68.27 l -78.986,-78.986 -78.987,78.986 v 68.269 c 0,5.523 -4.477,10 -10,10 -5.523,0 -10,-4.477 -10,-10 V 313.92 l -62.411,-0.002 c -5.522,0 -10,-4.478 -10,-10 0,-5.522 4.478,-10 10,-10 v 0 l 68.264,0.002 78.99,-78.99 L 64.306,78.448 35.172,107.582 c -2.607,2.607 -6.439,3.569 -9.969,2.5 -3.53,-1.069 -6.185,-3.993 -6.908,-7.61 L 0.194,11.962 C -0.461,8.684 0.565,5.295 2.929,2.93 5.294,0.566 8.683,-0.462 11.961,0.195 l 90.512,18.101 c 3.616,0.723 6.541,3.378 7.61,6.908 1.069,3.53 0.108,7.361 -2.5,9.969 L 78.449,64.307 214.931,200.788 351.412,64.307 322.278,35.173 c -2.607,-2.608 -3.568,-6.439 -2.5,-9.969 1.068,-3.53 3.994,-6.185 7.61,-6.908 L 417.9,0.195 c 3.281,-0.659 6.668,0.371 9.032,2.735 2.364,2.364 3.39,5.753 2.734,9.032 l -18.102,90.51 c -0.723,3.617 -3.378,6.541 -6.908,7.61 -3.53,1.069 -7.361,0.108 -9.969,-2.5 l -29.134,-29.133 -136.48,136.481 78.99,78.99 68.264,-0.002 c 5.523,0 10,4.477 10,10 0,5.522 -4.477,10 -9.999,10 z M 395.617,80.227 407.113,22.748 349.634,34.243 Z M 80.228,34.243 22.748,22.748 34.244,80.227 Z"
       style="fill:#ffffff;fill-opacity:1" />
    <g
       id="g1482"
       style="fill:#ffffff;fill-opacity:1" />
    <g
       id="g1484"
       style="fill:#ffffff;fill-opacity:1" />
    <g
       id="g1486"
       style="fill:#ffffff;fill-opacity:1" />
    <g
       id="g1488"
       style="fill:#ffffff;fill-opacity:1" />
    <g
       id="g1490"
       style="fill:#ffffff;fill-opacity:1" />
    <g
       id="g1492"
       style="fill:#ffffff;fill-opacity:1" />
    <g
       id="g1494"
       style="fill:#ffffff;fill-opacity:1" />
    <g
       id="g1496"
       style="fill:#ffffff;fill-opacity:1" />
    <g
       id="g1498"
       style="fill:#ffffff;fill-opacity:1" />
    <g
       id="g1500"
       style="fill:#ffffff;fill-opacity:1" />
    <g
       id="g1502"
       style="fill:#ffffff;fill-opacity:1" />
    <g
       id="g1504"
       style="fill:#ffffff;fill-opacity:1" />
    <g
       id="g1506"
       style="fill:#ffffff;fill-opacity:1" />
    <g
       id="g1508"
       style="fill:#ffffff;fill-opacity:1" />
    <g
       id="g1510"
       style="fill:#ffffff;fill-opacity:1" />
  </g>
  <path
     id="path2305"
     style="fill:#ffffff;fill-opacity:1;stroke-width:1.07478"
     d="m 394.83803,208.3595 v 117.87622 l -10.88926,9.93643 -95.82546,61.32015 -32.1233,18.92008 -32.12333,-18.92009 -95.85268,-61.32014 -10.86203,-9.93643 V 208.3595 l 2.30717,-25.1814 11.52899,-11.16149 119.55724,-76.428987 h 10.88926 l 119.57766,76.428987 11.50176,11.16149 z"
     sodipodi:nodetypes="cccccccccccccccc" />
  <path
     fill="#000000"
     d="m 250.93418,106.74821 -111.23912,71.11149 111.23912,-2.40627 z m 10.13164,0 v 68.70522 l 111.25812,2.40627 z m -13.99434,78.9002 -118.10329,2.59623 45.09214,122.14962 z m 17.85704,0 73.01116,124.74585 45.0858,-122.14962 z m -8.92851,4.7492 -74.15098,126.77218 h 148.30195 z m -129.17847,21.27645 v 109.67505 l 39.19679,-3.60941 z m 258.35692,0 -39.19679,106.06564 39.19679,3.60941 z m -140.1333,42.48958 c 5.12915,2.84953 8.73855,9.11848 6.83886,14.94417 -1.32977,9.62505 -17.09715,13.3611 -19.25012,18.80687 -0.75987,1.89967 16.08399,1.01317 19.12347,1.01317 0.31662,2.5329 0.94985,6.77552 -2.40627,7.40875 -9.18179,-0.75986 -18.9335,-0.37994 -28.55856,-0.37994 0.2533,-7.09215 4.68589,-13.48775 10.76487,-16.9705 4.36927,-3.10283 9.75171,-5.88901 11.46142,-11.33478 1.13981,-2.84951 -0.37993,-5.88902 -2.91284,-7.28211 -2.65956,-1.83637 -6.96552,-1.45643 -8.35862,1.70971 -1.26645,2.40627 -2.78619,5.76237 -5.50907,6.07899 -1.83636,0.25329 -5.69906,0.31661 -4.55924,-3.10282 0.88652,-3.54607 2.15296,-7.28212 5.19246,-9.62505 5.5724,-3.98935 12.60124,-4.24264 18.17364,-1.26646 z m 33.75103,-0.88652 c 4.30596,1.39309 7.59873,5.00249 9.05516,9.24511 3.86269,9.30845 3.48276,20.95985 -2.7862,29.06516 -2.84952,3.03949 -6.45893,5.76239 -10.76486,5.76239 -7.91535,-0.0633 -14.18431,-7.02883 -15.70405,-14.43761 -1.96301,-8.48525 -1.13981,-18.17364 4.36927,-25.20246 4.30594,-4.81254 10.13163,-6.52225 15.83068,-4.43259 z m -12.72787,18.49024 c 0.37995,6.6489 1.07649,14.4376 6.14231,17.85703 3.10283,1.13981 6.14231,-1.3931 7.02884,-4.24262 1.20313,-3.98933 1.45642,-8.16863 1.51974,-12.28462 -0.12658,-4.49592 -0.94984,-9.49843 -4.24262,-12.72788 -7.72539,-2.7862 -9.6884,6.90218 -10.44827,11.39809 z m -81.49642,55.53408 71.42811,77.95035 71.42807,-77.95035 z m -13.55106,0.18998 -34.09299,3.1028 44.3196,28.33695 44.86419,28.71688 z m 169.95833,0 -28.21031,30.80653 -26.88051,29.35011 50.91151,-32.54791 38.24696,-24.50593 z"
     id="path1432"
     style="fill:#ff0000;fill-opacity:1;stroke-width:0.633229"
     sodipodi:nodetypes="cccccccccccccccccccccccccccccccccccccccccccccccccccccccccccccccccccccc" />
</svg>
