<?xml version="1.0" encoding="UTF-8" standalone="no"?>
<svg
   xmlns:dc="http://purl.org/dc/elements/1.1/"
   xmlns:cc="http://creativecommons.org/ns#"
   xmlns:rdf="http://www.w3.org/1999/02/22-rdf-syntax-ns#"
   xmlns:svg="http://www.w3.org/2000/svg"
   xmlns="http://www.w3.org/2000/svg"
   xmlns:sodipodi="http://sodipodi.sourceforge.net/DTD/sodipodi-0.dtd"
   xmlns:inkscape="http://www.inkscape.org/namespaces/inkscape"
   width="512px"
   height="512px"
   viewBox="0 0 512 512"
   version="1.1"
   id="svg845"
   sodipodi:docname="schpkt_update.svg"
   inkscape:version="1.0.1 (3bc2e813f5, 2020-09-07)">
  <metadata
     id="metadata851">
    <rdf:RDF>
      <cc:Work
         rdf:about="">
        <dc:format>image/svg+xml</dc:format>
        <dc:type
           rdf:resource="http://purl.org/dc/dcmitype/StillImage" />
        <dc:title></dc:title>
      </cc:Work>
    </rdf:RDF>
  </metadata>
  <defs
     id="defs849" />
  <sodipodi:namedview
     pagecolor="#fe76ff"
     bordercolor="#666666"
     borderopacity="1"
     objecttolerance="10"
     gridtolerance="10"
     guidetolerance="10"
     inkscape:pageopacity="0"
     inkscape:pageshadow="2"
     inkscape:window-width="3440"
     inkscape:window-height="1361"
     id="namedview847"
     showgrid="false"
     inkscape:pagecheckerboard="true"
     inkscape:zoom="1.1337891"
     inkscape:cx="379.12891"
     inkscape:cy="533.5597"
     inkscape:window-x="2391"
     inkscape:window-y="-9"
     inkscape:window-maximized="1"
     inkscape:current-layer="svg845"
     inkscape:document-rotation="0"
     inkscape:snap-bbox="false"
     inkscape:snap-global="true" />
  <g
     id="g2217"
     transform="matrix(6.7053977,0,0,6.7053977,54.838069,54.838069)">
    <path
       d="M 66.805958,18.954176 C 66.684453,16.854239 64.186868,15.21332 59.191695,13.961458 59.359837,13.593262 59.45434,13.21034 59.455569,12.81269 V 4.2263943 h -0.02087 c -0.439381,-7.1527922 -29.75012,-7.3638904 -33.116645,-7.3638904 -3.366526,0 -32.677265,0.2110982 -33.1166436,7.3638904 h -0.020864 v 0.159551 0 0 8.4304277 c 0.00614,2.331898 3.0155131,4.156916 7.49275842,5.515552 -0.0613631,0.203737 -0.0981812,0.411152 -0.11045541,0.622251 h -0.0184101 v 0.15955 0 0 8.4157 C -4.2789088,28.771469 -6.6881283,30.389069 -6.8071779,32.45464 h -0.012274 v 0.159552 0 0 8.430427 c 0.00369,1.623738 1.4678689,3.000786 3.8635878,4.148325 -0.089594,0.247919 -0.1472777,0.501971 -0.1632328,0.762163 h -0.01841 v 0.15955 0 0 8.430428 c 0.00982,4.08205 9.2011812,6.616457 19.4136709,7.799588 0.07487,0.01472 0.143595,0.04541 0.22337,0.04541 0.02333,0 0.04295,-0.01228 0.06628,-0.0135 1.968613,0.222144 3.969136,0.395196 5.948796,0.519155 0.04172,0.0049 0.07854,0.02453 0.121504,0.02453 0.02331,0 0.04172,-0.01228 0.06382,-0.01351 2.51354,0.153417 4.986581,0.230738 7.30007,0.230738 2.313488,0 4.786527,-0.07731 7.300068,-0.230734 0.02211,0.0013 0.04172,0.01351 0.06382,0.01351 0.04295,0 0.07977,-0.02087 0.121503,-0.02453 1.979661,-0.123959 3.980184,-0.295783 5.948797,-0.519156 0.02331,0 0.04295,0.01228 0.06628,0.01228 0.07977,0 0.148506,-0.03068 0.223373,-0.0454 10.212488,-1.183132 19.402623,-3.718764 19.413668,-7.802042 v -8.586296 h -0.01964 c -0.08591,-1.504688 -1.368456,-2.760232 -3.901634,-3.809586 0.154641,-0.354694 0.239326,-0.722888 0.239326,-1.104585 v -8.021742 c 4.406059,-1.354955 7.357753,-3.167701 7.363889,-5.478734 V 18.954176 Z M 1.7717588,16.09944 v -5.929159 c 1.1463122,0.309283 2.3785366,0.591566 3.6819452,0.848074 v 5.990526 C 5.3027442,16.976971 5.1468752,16.94506 4.9995973,16.91315 4.3466658,16.769554 3.7096893,16.619822 3.1009409,16.461498 2.6370159,16.342448 2.1964098,16.220944 1.7717588,16.09944 Z m 54.9481242,-2.690274 -0.03436,-0.0073 -0.446743,0.347329 c -0.648022,0.504428 -1.643375,1.01499 -2.919782,1.508371 V 9.4191773 c 1.459277,-0.5081096 2.70132,-1.0714463 3.681946,-1.6887867 v 5.0786314 c 0,0.186551 -0.09818,0.38783 -0.281056,0.600156 z M 24.078212,41.024982 c 0.337511,0.0061 0.675022,0.01106 1.012533,0.01472 v 6.134121 c -0.238098,-0.0024 -0.476197,-0.0024 -0.713069,-0.0061 -0.108002,-0.0013 -0.212326,-0.0049 -0.319103,-0.0061 -0.562108,-0.0098 -1.121765,-0.02331 -1.67774,-0.04049 -0.06872,-0.0024 -0.137459,-0.0049 -0.206187,-0.0073 -0.668887,-0.02211 -1.332864,-0.05033 -1.991933,-0.08223 v -6.126758 c 1.22977,0.05769 2.465675,0.09574 3.701583,0.117823 0.06382,0 0.128867,0.0013 0.193916,0.0024 z m 4.674843,-0.0037 c 1.235906,-0.02333 2.471811,-0.06136 3.701581,-0.117823 v 6.127985 c -0.262645,0.0135 -0.526518,0.02577 -0.792845,0.03682 -0.736389,0.03068 -1.483825,0.05646 -2.243531,0.07487 -0.179189,0.0049 -0.359604,0.0073 -0.54002,0.01106 -0.43815,0.0086 -0.887348,0.01106 -1.331636,0.01472 v -6.130439 c 0.337511,-0.0037 0.675023,-0.0086 1.012535,-0.01472 0.06382,0 0.128868,-0.0013 0.193916,-0.0024 z m 6.973605,5.802745 c -0.270011,0.02087 -0.542476,0.04172 -0.817393,0.06136 v -6.120621 c 1.244497,-0.08223 2.474266,-0.180415 3.681945,-0.298238 v 6.094847 c -0.758481,0.07977 -1.534144,0.154641 -2.330672,0.219689 -0.177959,0.01596 -0.355921,0.02947 -0.53388,0.04295 z m 5.319182,-6.622591 c 1.265362,-0.152188 2.493904,-0.325239 3.681946,-0.517927 v 6.026117 c -1.156132,0.203733 -2.384674,0.391513 -3.681946,0.562111 z m -26.363956,6.426268 c -0.125185,-0.01228 -0.249144,-0.02577 -0.373103,-0.03804 -0.08836,-0.0086 -0.175506,-0.01964 -0.263873,-0.02822 v -6.09362 c 1.207678,0.116595 2.437448,0.216008 3.681946,0.298237 v 6.115713 c -1.030945,-0.07365 -2.049617,-0.157097 -3.04497,-0.254056 z M 11.59028,40.201482 v 6.0703 C 10.293008,46.101157 9.064465,45.913377 7.9083341,45.709643 v -6.026116 c 1.1880406,0.192688 2.4165849,0.366967 3.6819459,0.517927 z m 35.592137,5.034434 v -5.990545 c 1.303409,-0.25651 2.535634,-0.538791 3.681945,-0.848075 v 5.929159 c -1.093537,0.31542 -2.324534,0.621022 -3.681945,0.909441 z M 24.078212,12.796735 c 0.337511,0.0061 0.675022,0.01106 1.012533,0.01472 v 6.127984 c -1.651965,-0.01596 -3.294113,-0.0589 -4.90926,-0.139913 v -6.123075 c 1.22977,0.05769 2.465678,0.09572 3.701583,0.117822 0.06505,0 0.130095,0.0013 0.195144,0.0024 z m 4.674843,-0.0037 c 1.235906,-0.02332 2.471811,-0.06136 3.701581,-0.117822 v 6.123075 c -0.208644,0.0098 -0.408696,0.02455 -0.618566,0.03436 -0.01718,0.0013 -0.03436,0.0013 -0.05278,0.0024 -0.82353,0.03682 -1.663012,0.06382 -2.513542,0.08346 -0.132549,0.0037 -0.2651,0.0049 -0.39765,0.0086 -0.436924,0.0086 -0.883667,0.0098 -1.326728,0.01472 V 12.81141 c 0.337512,-0.0037 0.675023,-0.0086 1.012536,-0.01472 0.06505,-0.0013 0.130095,-0.0024 0.195143,-0.0037 z m 7.36389,14.72778 c 1.235905,-0.02331 2.471812,-0.06136 3.701583,-0.117821 v 6.121847 c -1.612693,0.07977 -3.252386,0.123959 -4.909261,0.141141 v -6.126757 c 0.337511,-0.0037 0.675022,-0.0086 1.012534,-0.01472 0.06505,-0.0013 0.130096,-0.0024 0.195144,-0.0037 z M 24.28931,33.324789 c -0.785482,-0.06136 -1.552554,-0.128869 -2.301216,-0.203734 -0.160779,-0.01596 -0.321556,-0.03313 -0.481109,-0.0491 -0.03313,-0.0037 -0.06505,-0.0086 -0.09818,-0.01106 v -6.094847 c 1.207677,0.116596 2.437447,0.216009 3.681943,0.298237 v 6.116939 c -0.09941,-0.0073 -0.204961,-0.01228 -0.304372,-0.01964 -0.166915,-0.01228 -0.332604,-0.02453 -0.497063,-0.03682 z m -7.611809,-0.879981 c -0.486017,-0.07731 -0.942578,-0.160778 -1.405276,-0.241781 v -6.018753 c 1.188042,0.192688 2.416584,0.36574 3.681946,0.517927 v 6.0703 c -0.751117,-0.09942 -1.486279,-0.202507 -2.191986,-0.312965 -0.02822,-0.0061 -0.05646,-0.01106 -0.08468,-0.01472 z m 14.764601,-4.920327 c 0.337512,0.0061 0.675023,0.01106 1.012534,0.01472 v 6.127985 c -0.597702,-0.0061 -1.200314,-0.0086 -1.783288,-0.0221 -0.08959,-0.0024 -0.18287,-0.0037 -0.272463,-0.0049 -0.922942,-0.02333 -1.825018,-0.05891 -2.71114,-0.101873 -0.04786,-0.0024 -0.09573,-0.0049 -0.142369,-0.0061 v -6.127984 c 1.22977,0.05769 2.465676,0.09572 3.701583,0.117821 0.06505,0 0.130095,0.0013 0.195143,0.0024 z m 12.355381,5.741382 c -0.04418,0.0037 -0.08713,0.0073 -0.131323,0.01106 -0.457789,0.03804 -0.930305,0.0626 -1.394231,0.09573 v -6.109574 c 1.244499,-0.08223 2.474268,-0.180416 3.681946,-0.298238 v 6.088709 c -0.711842,0.07611 -1.423686,0.15096 -2.156392,0.212326 z M 14.04491,18.328244 v -6.089937 c 1.207678,0.116595 2.437448,0.216008 3.681946,0.298237 v 6.109575 c -1.249407,-0.0896 -2.481633,-0.191461 -3.681946,-0.317875 z m 24.546302,-0.0024 c -1.185586,0.125187 -2.412901,0.234418 -3.681945,0.32524 v -6.114482 c 1.244497,-0.08222 2.474266,-0.180415 3.681945,-0.298237 z m 2.45463,-6.352582 c 1.265362,-0.152187 2.493904,-0.32524 3.681946,-0.517927 v 6.016299 c -1.163495,0.204961 -2.388356,0.393967 -3.681946,0.564564 z m 6.136575,5.025855 V 11.01841 c 1.303409,-0.256505 2.535634,-0.538788 3.681945,-0.848071 v 5.915659 c -1.099674,0.320288 -2.338034,0.62589 -3.681945,0.913081 z M 11.59028,11.973206 V 18.03737 C 11.347272,18.00546 11.094444,17.97968 10.85389,17.94655 10.696794,17.92445 10.547062,17.90114 10.39242,17.87904 9.683032,17.777167 8.9895995,17.667941 8.3096654,17.5538 8.1734345,17.530491 8.0421112,17.505938 7.9083341,17.482628 v -6.026116 c 1.1880406,0.19146 2.4165849,0.365739 3.6819459,0.516698 z m 1.227315,13.771704 v 5.980706 C 11.461412,31.434743 10.231642,31.125458 9.1356497,30.803902 v -5.907067 c 1.1463113,0.309282 2.3785363,0.592792 3.6819453,0.848075 z m 39.159942,6.485132 c -0.53879,0.09328 -1.082491,0.185325 -1.64092,0.270009 -0.320328,0.0491 -0.648022,0.09574 -0.976943,0.142369 -0.31051,0.04418 -0.633295,0.08223 -0.948714,0.122732 v -6.064164 c 1.265361,-0.152187 2.493904,-0.325239 3.681946,-0.517927 v 6.026117 c -0.03928,0.0073 -0.07731,0.01472 -0.115369,0.02087 z M 6.6810194,24.146945 v 5.830974 C 4.7516797,29.232939 3.5071823,28.472004 3.1021684,27.794526 l -0.08223,-0.13746 c -0.00736,-0.03804 -0.019636,-0.07855 -0.020864,-0.116594 v -5.082313 c 0.9806248,0.61734 2.2226675,1.180677 3.681945,1.688786 z M 5.453704,39.245376 V 45.2359 C 4.3270287,44.996575 3.2874929,44.744974 2.3412331,44.487237 2.1915005,44.44551 2.0368588,44.405009 1.8908084,44.362052 c -0.040501,-0.01228 -0.078547,-0.02331 -0.1190496,-0.03436 v -5.92916 c 1.1463122,0.308056 2.3785366,0.591566 3.6819452,0.846849 z M 9.1356497,52.74584 v 5.990526 C 7.7782381,58.447947 6.5472416,58.142346 5.453704,57.826925 v -5.929158 c 1.1463123,0.309282 2.3785369,0.592793 3.6819457,0.848073 z m 2.4546303,0.43938 c 1.188041,0.192689 2.416583,0.36574 3.681945,0.517927 v 6.070301 C 13.974953,59.602851 12.746411,59.415071 11.59028,59.211336 Z m 6.136576,0.781799 c 1.207677,0.116596 2.437447,0.216008 3.681944,0.298238 v 6.120621 c -1.27518,-0.08959 -2.502495,-0.198826 -3.681944,-0.322784 z m 6.136574,0.436925 c 1.229771,0.05769 2.465677,0.09573 3.701583,0.117822 0.06505,0.0013 0.130095,0.0024 0.193917,0.0037 0.337511,0.0061 0.675022,0.01106 1.012534,0.01472 v 6.135349 c -1.696149,-0.01596 -3.333387,-0.06505 -4.90926,-0.142369 v -6.129212 z m 7.363892,0.135004 c 0.337512,-0.0037 0.675023,-0.0086 1.012534,-0.01472 0.06505,-0.0013 0.130095,-0.0024 0.195144,-0.0037 1.235905,-0.02332 2.471812,-0.06136 3.701582,-0.117823 v 6.127984 c -1.575873,0.07731 -3.213112,0.126413 -4.90926,0.142368 z m 7.36389,-0.273691 c 1.244497,-0.08223 2.474267,-0.180415 3.681945,-0.298238 v 6.094848 c -1.17945,0.123959 -2.406764,0.23319 -3.681945,0.322783 z m 6.136576,-0.563337 c 1.265362,-0.152188 2.493904,-0.32524 3.681945,-0.517927 v 6.026118 c -1.156131,0.203733 -2.384673,0.391513 -3.681945,0.562108 z m 6.136574,-0.95608 c 1.303408,-0.256508 2.535634,-0.538791 3.681946,-0.848073 v 5.929158 c -1.093538,0.315421 -2.324534,0.621022 -3.681946,0.909441 z m 6.004026,-11.306025 -0.418514,0.366966 c -0.64434,0.568248 -1.718242,1.141404 -3.130881,1.693695 v -5.851837 c 1.459277,-0.508109 2.70132,-1.071446 3.681946,-1.688786 v 5.078629 c 0,0.126414 -0.04664,0.261419 -0.132551,0.401333 z m 0.824756,-10.462861 c -0.611202,0.170596 -1.257999,0.330147 -1.918294,0.486016 -0.305602,0.07118 -0.617339,0.142368 -0.936441,0.211099 -0.09451,0.02087 -0.195142,0.03928 -0.290874,0.06014 v -5.988068 c 1.303409,-0.256508 2.535632,-0.538791 3.681946,-0.848073 v 5.929158 c -0.176734,0.0491 -0.354694,0.09942 -0.536337,0.149733 z M -4.3648166,12.81269 V 7.7303782 c 0.9806247,0.6173404 2.2226676,1.1806771 3.68194515,1.6887866 V 15.295548 C -3.0699993,14.400835 -4.362362,13.503669 -4.3648166,12.81269 Z m 0,28.228247 v -5.082311 c 0.9806247,0.61734 2.2226676,1.180677 3.68194515,1.688785 v 5.853065 l -0.70079695,-0.272463 -0.014728,0.01472 c -1.9268846,-0.79898 -2.9639659,-1.583233 -2.9664205,-2.2018 z m 3.68194515,13.500466 v -5.082312 c 0.98062469,0.61734 2.22266765,1.180677 3.68194525,1.688786 v 5.876385 C 0.61194601,56.129549 -0.68041685,55.232382 -0.68287145,54.541403 Z M 57.000939,57.024262 v -5.875158 c 1.459277,-0.508109 2.70132,-1.071445 3.681945,-1.688785 v 5.078629 c -0.0013,0.690978 -1.294819,1.589373 -3.681945,2.485314 z M 60.682884,30.02333 v -5.875157 c 1.459276,-0.508109 2.701319,-1.071446 3.681945,-1.688786 v 5.078629 c -0.0013,0.690979 -1.294818,1.589375 -3.681945,2.485314 z"
       id="path2162"
       style="fill:#ffffff;fill-opacity:1;stroke-width:1.22732" />
    <g
       id="g2164" />
    <g
       id="g2166" />
    <g
       id="g2168" />
    <g
       id="g2170" />
    <g
       id="g2172" />
    <g
       id="g2174" />
    <g
       id="g2176" />
    <g
       id="g2178" />
    <g
       id="g2180" />
    <g
       id="g2182" />
    <g
       id="g2184" />
    <g
       id="g2186" />
    <g
       id="g2188" />
    <g
       id="g2190" />
    <g
       id="g2192" />
  </g>
  <g
     id="g9"
     style="fill:#00ff00;fill-opacity:1"
     transform="matrix(6.2323174,0,0,6.2323174,325.03048,312.56584)">
    <g
       id="spin"
       style="fill:#00ff00;fill-opacity:1">
      <g
         id="g6"
         style="fill:#00ff00;fill-opacity:1">
        <path
           style="fill:#00ff00;fill-opacity:1"
           d="m 25.883,6.086 -2.82,2.832 C 24.953,10.809 26,13.324 26,16 26,21.516 21.516,26 16,26 v -2 l -4,4 4,4 v -2 c 7.719,0 14,-6.281 14,-14 0,-3.746 -1.461,-7.266 -4.117,-9.914 z"
           id="path2" />
        <path
           style="fill:#00ff00;fill-opacity:1"
           d="M 20,4 16,0 V 2 C 8.281,2 2,8.281 2,16 c 0,3.746 1.461,7.266 4.117,9.914 l 2.82,-2.832 C 7.047,21.191 6,18.676 6,16 6,10.484 10.484,6 16,6 v 2 z"
           id="path4" />
      </g>
    </g>
  </g>
  <g
     id="g11"
     transform="matrix(6.2323174,0,0,6.2323174,325.03048,312.56584)" />
  <g
     id="g13"
     transform="matrix(6.2323174,0,0,6.2323174,325.03048,312.56584)" />
  <g
     id="g15"
     transform="matrix(6.2323174,0,0,6.2323174,325.03048,312.56584)" />
  <g
     id="g17"
     transform="matrix(6.2323174,0,0,6.2323174,325.03048,312.56584)" />
  <g
     id="g19"
     transform="matrix(6.2323174,0,0,6.2323174,325.03048,312.56584)" />
  <g
     id="g21"
     transform="matrix(6.2323174,0,0,6.2323174,325.03048,312.56584)" />
  <g
     id="g23"
     transform="matrix(6.2323174,0,0,6.2323174,325.03048,312.56584)" />
  <g
     id="g25"
     transform="matrix(6.2323174,0,0,6.2323174,325.03048,312.56584)" />
  <g
     id="g27"
     transform="matrix(6.2323174,0,0,6.2323174,325.03048,312.56584)" />
  <g
     id="g29"
     transform="matrix(6.2323174,0,0,6.2323174,325.03048,312.56584)" />
  <g
     id="g31"
     transform="matrix(6.2323174,0,0,6.2323174,325.03048,312.56584)" />
  <g
     id="g33"
     transform="matrix(6.2323174,0,0,6.2323174,325.03048,312.56584)" />
  <g
     id="g35"
     transform="matrix(6.2323174,0,0,6.2323174,325.03048,312.56584)" />
  <g
     id="g37"
     transform="matrix(6.2323174,0,0,6.2323174,325.03048,312.56584)" />
  <g
     id="g39"
     transform="matrix(6.2323174,0,0,6.2323174,325.03048,312.56584)" />
</svg>
