<?xml version="1.0" encoding="UTF-8" standalone="no"?>
<svg
   xmlns:dc="http://purl.org/dc/elements/1.1/"
   xmlns:cc="http://creativecommons.org/ns#"
   xmlns:rdf="http://www.w3.org/1999/02/22-rdf-syntax-ns#"
   xmlns:svg="http://www.w3.org/2000/svg"
   xmlns="http://www.w3.org/2000/svg"
   xmlns:sodipodi="http://sodipodi.sourceforge.net/DTD/sodipodi-0.dtd"
   xmlns:inkscape="http://www.inkscape.org/namespaces/inkscape"
   width="512px"
   height="512px"
   viewBox="0 0 512 512"
   version="1.1"
   id="svg845"
   sodipodi:docname="wound_add.svg"
   inkscape:version="1.0.1 (3bc2e813f5, 2020-09-07)">
  <metadata
     id="metadata851">
    <rdf:RDF>
      <cc:Work
         rdf:about="">
        <dc:format>image/svg+xml</dc:format>
        <dc:type
           rdf:resource="http://purl.org/dc/dcmitype/StillImage" />
        <dc:title></dc:title>
      </cc:Work>
    </rdf:RDF>
  </metadata>
  <defs
     id="defs849" />
  <sodipodi:namedview
     pagecolor="#fe76ff"
     bordercolor="#666666"
     borderopacity="1"
     objecttolerance="10"
     gridtolerance="10"
     guidetolerance="10"
     inkscape:pageopacity="0"
     inkscape:pageshadow="2"
     inkscape:window-width="3440"
     inkscape:window-height="1361"
     id="namedview847"
     showgrid="false"
     inkscape:pagecheckerboard="true"
     inkscape:zoom="1.6034199"
     inkscape:cx="300.30546"
     inkscape:cy="181.892"
     inkscape:window-x="2391"
     inkscape:window-y="-9"
     inkscape:window-maximized="1"
     inkscape:current-layer="svg845" />
  <path
     fill="#000"
     d="m 27.438,0.00105553 c -2.13,0.008 -4.264,0.054 -6.407,0.156 C 55.4,27.931056 66.44,85.053056 81.126,133.34506 c 36.747,-81.008004 70.31,15.56 85.313,133.187 19.56,-157.11 81.692,-39.362 117.75,24.19 -3.213,-72.754 106.18,-22.386 126.625,48.436 13.595,-60.515 45.038,-53.18 82.406,13.156 -5.587,-75.425 -47.698,-149.916 -98.158,-109.562 6.667,-98.496 -65.15,-100.515 -91.25,-67.406 -15.74,-40.536 -96.467,-119.320004 -106.5,-42.313 C 152.726,44.621056 93.442,-0.25094447 27.438,0.00105553 Z M 81.5,163.53106 c -5.156,15.956 -49.635,88.657 0,88.657 49.667,0 3.134,-72.61 0,-88.656 z m 85.563,129.69 c -6.08,22.943 -58.522,127.5 0,127.5 58.558,0 3.694,-104.426 0,-127.5 z"
     id="path843"
     style="fill:#ffffff;fill-opacity:1"
     sodipodi:nodetypes="ccccccccccccscccsc" />
  <path
     d="m 499.38229,399.79682 h -56.77968 v -59.40168 c 0,-7.28908 -5.65037,-13.20037 -12.61771,-13.20037 h -12.61769 c -6.96734,0 -12.61771,5.91129 -12.61771,13.20037 v 59.40168 h -56.77968 c -6.96734,0 -12.61771,5.91129 -12.61771,13.20037 v 13.20038 c 0,7.28908 5.65037,13.20037 12.61771,13.20037 h 56.77968 v 59.40168 c 0,7.28908 5.65037,13.20038 12.61771,13.20038 h 12.61769 c 6.96734,0 12.61771,-5.9113 12.61771,-13.20038 v -59.40168 h 56.77968 c 6.96734,0 12.61771,-5.91129 12.61771,-13.20037 v -13.20038 c 0,-7.28908 -5.65037,-13.20037 -12.61771,-13.20037 z"
     id="path863"
     style="fill:#ff0000;fill-opacity:1;stroke-width:0.403305" />
</svg>
