<?xml version="1.0" encoding="UTF-8" standalone="no"?>
<svg
   xmlns:dc="http://purl.org/dc/elements/1.1/"
   xmlns:cc="http://creativecommons.org/ns#"
   xmlns:rdf="http://www.w3.org/1999/02/22-rdf-syntax-ns#"
   xmlns:svg="http://www.w3.org/2000/svg"
   xmlns="http://www.w3.org/2000/svg"
   xmlns:sodipodi="http://sodipodi.sourceforge.net/DTD/sodipodi-0.dtd"
   xmlns:inkscape="http://www.inkscape.org/namespaces/inkscape"
   version="1.1"
   id="Layer_1"
   x="0px"
   y="0px"
   viewBox="0 0 511.999 511.999"
   style="enable-background:new 0 0 511.999 511.999;"
   xml:space="preserve"
   sodipodi:docname="xp_add.svg"
   inkscape:version="1.0.1 (3bc2e813f5, 2020-09-07)"><metadata
   id="metadata989"><rdf:RDF><cc:Work
       rdf:about=""><dc:format>image/svg+xml</dc:format><dc:type
         rdf:resource="http://purl.org/dc/dcmitype/StillImage" /><dc:title></dc:title></cc:Work></rdf:RDF></metadata><defs
   id="defs987" /><sodipodi:namedview
   pagecolor="#ffffff"
   bordercolor="#666666"
   borderopacity="1"
   objecttolerance="10"
   gridtolerance="10"
   guidetolerance="10"
   inkscape:pageopacity="0"
   inkscape:pageshadow="2"
   inkscape:window-width="3440"
   inkscape:window-height="1361"
   id="namedview985"
   showgrid="false"
   inkscape:zoom="1.2988307"
   inkscape:cx="255.9995"
   inkscape:cy="194.40564"
   inkscape:window-x="2391"
   inkscape:window-y="-9"
   inkscape:window-maximized="1"
   inkscape:current-layer="Layer_1" />
<g
   id="g916"
   style="fill:#ffffff;fill-opacity:1">
	<g
   id="g914"
   style="fill:#ffffff;fill-opacity:1">
		<path
   d="M256.003,94.976c-77.973,0-141.41,63.435-141.41,141.41c0,47.073,23.706,91.179,62.458,117.326v95.031    c0,9.109,7.385,16.494,16.494,16.494h1.395c7.276,26.905,31.888,46.764,61.063,46.764c29.175,0,53.787-19.858,61.063-46.764h1.395    c9.109,0,16.494-7.385,16.494-16.494v-95.031c38.752-26.146,62.459-70.253,62.459-117.326    C397.413,158.412,333.977,94.976,256.003,94.976z M256.003,479.013c-10.612,0-19.966-5.488-25.372-13.777h50.743    C275.97,473.525,266.616,479.013,256.003,479.013z M301.967,432.249h-91.929v-26.753h91.929V432.249z M310.202,330.309    c-5.097,2.948-8.235,8.389-8.235,14.277v27.924h-91.929v-27.924c0-5.887-3.138-11.329-8.235-14.277    c-33.446-19.348-54.223-55.337-54.223-93.923c0-59.785,48.637-108.422,108.422-108.422S364.425,176.6,364.425,236.385    C364.426,274.971,343.649,310.961,310.202,330.309z"
   id="path912"
   style="fill:#ffffff;fill-opacity:1" />
	</g>
</g>
<g
   id="g922"
   style="fill:#ffffff;fill-opacity:1">
	<g
   id="g920"
   style="fill:#ffffff;fill-opacity:1">
		<path
   d="M289.589,219.897h-34.444l25.529-34.493c5.42-7.322,3.876-17.65-3.445-23.069c-7.321-5.419-17.649-3.877-23.069,3.445    l-44.999,60.798c-8.051,10.877-0.253,26.306,13.258,26.306h34.444l-25.529,34.493c-5.42,7.322-3.877,17.65,3.445,23.069    c7.323,5.421,17.651,3.876,23.069-3.445l45-60.798C310.892,235.334,303.107,219.897,289.589,219.897z"
   id="path918"
   style="fill:#ffffff;fill-opacity:1" />
	</g>
</g>
<g
   id="g928"
   style="fill:#ffffff;fill-opacity:1">
	<g
   id="g926"
   style="fill:#ffffff;fill-opacity:1">
		<path
   d="M72.518,219.921H36.085c-9.109,0-16.494,7.385-16.494,16.494c0,9.109,7.385,16.494,16.494,16.494h36.433    c9.109,0,16.494-7.385,16.494-16.494C89.012,227.306,81.627,219.921,72.518,219.921z"
   id="path924"
   style="fill:#ffffff;fill-opacity:1" />
	</g>
</g>
<g
   id="g934"
   style="fill:#ffffff;fill-opacity:1">
	<g
   id="g932"
   style="fill:#ffffff;fill-opacity:1">
		<path
   d="M137.92,95.008l-25.762-25.762c-6.44-6.441-16.884-6.441-23.325,0c-6.441,6.441-6.441,16.884,0,23.325l25.762,25.762    c6.44,6.441,16.884,6.442,23.325,0C144.361,111.892,144.361,101.449,137.92,95.008z"
   id="path930"
   style="fill:#ffffff;fill-opacity:1" />
	</g>
</g>
<g
   id="g940"
   style="fill:#ffffff;fill-opacity:1">
	<g
   id="g938"
   style="fill:#ffffff;fill-opacity:1">
		<path
   d="M255.999,0c-9.109,0-16.494,7.385-16.494,16.494v36.433c0,9.109,7.385,16.494,16.494,16.494s16.494-7.385,16.494-16.494    V16.494C272.493,7.385,265.108,0,255.999,0z"
   id="path936"
   style="fill:#ffffff;fill-opacity:1" />
	</g>
</g>
<g
   id="g946"
   style="fill:#ffffff;fill-opacity:1">
	<g
   id="g944"
   style="fill:#ffffff;fill-opacity:1">
		<path
   d="M475.914,219.921h-36.433c-9.109,0-16.494,7.385-16.494,16.494c0,9.109,7.385,16.494,16.494,16.494h36.433    c9.109,0,16.494-7.385,16.494-16.494C492.408,227.306,485.024,219.921,475.914,219.921z"
   id="path942"
   style="fill:#ffffff;fill-opacity:1" />
	</g>
</g>
<g
   id="g952"
   style="fill:#ffffff;fill-opacity:1">
	<g
   id="g950"
   style="fill:#ffffff;fill-opacity:1">
		<path
   d="M423.168,69.247c-6.439-6.44-16.883-6.441-23.325,0l-25.763,25.762c-6.441,6.441-6.441,16.884,0,23.325    c6.44,6.44,16.883,6.44,23.325,0l25.763-25.762C429.609,86.131,429.609,75.688,423.168,69.247z"
   id="path948"
   style="fill:#ffffff;fill-opacity:1" />
	</g>
</g>
<g
   id="g954"
   style="fill:#ffffff;fill-opacity:1">
</g>
<g
   id="g956"
   style="fill:#ffffff;fill-opacity:1">
</g>
<g
   id="g958"
   style="fill:#ffffff;fill-opacity:1">
</g>
<g
   id="g960"
   style="fill:#ffffff;fill-opacity:1">
</g>
<g
   id="g962"
   style="fill:#ffffff;fill-opacity:1">
</g>
<g
   id="g964"
   style="fill:#ffffff;fill-opacity:1">
</g>
<g
   id="g966"
   style="fill:#ffffff;fill-opacity:1">
</g>
<g
   id="g968"
   style="fill:#ffffff;fill-opacity:1">
</g>
<g
   id="g970"
   style="fill:#ffffff;fill-opacity:1">
</g>
<g
   id="g972"
   style="fill:#ffffff;fill-opacity:1">
</g>
<g
   id="g974"
   style="fill:#ffffff;fill-opacity:1">
</g>
<g
   id="g976"
   style="fill:#ffffff;fill-opacity:1">
</g>
<g
   id="g978"
   style="fill:#ffffff;fill-opacity:1">
</g>
<g
   id="g980"
   style="fill:#ffffff;fill-opacity:1">
</g>
<g
   id="g982"
   style="fill:#ffffff;fill-opacity:1">
</g>
<path
   d="M 499.38128,399.79581 H 442.6016 v -59.40168 c 0,-7.28908 -5.65037,-13.20037 -12.61771,-13.20037 H 417.3662 c -6.96734,0 -12.61771,5.91129 -12.61771,13.20037 v 59.40168 h -56.77968 c -6.96734,0 -12.61771,5.91129 -12.61771,13.20037 v 13.20038 c 0,7.28908 5.65037,13.20037 12.61771,13.20037 h 56.77968 v 59.40168 c 0,7.28908 5.65037,13.20038 12.61771,13.20038 h 12.61769 c 6.96734,0 12.61771,-5.9113 12.61771,-13.20038 v -59.40168 h 56.77968 c 6.96734,0 12.61771,-5.91129 12.61771,-13.20037 v -13.20038 c 0,-7.28908 -5.65037,-13.20037 -12.61771,-13.20037 z"
   id="path863"
   style="fill:#00ff00;fill-opacity:1;stroke-width:0.403305" /></svg>
