<?xml version="1.0" encoding="UTF-8" standalone="no"?>
<svg
   xmlns:dc="http://purl.org/dc/elements/1.1/"
   xmlns:cc="http://creativecommons.org/ns#"
   xmlns:rdf="http://www.w3.org/1999/02/22-rdf-syntax-ns#"
   xmlns:svg="http://www.w3.org/2000/svg"
   xmlns="http://www.w3.org/2000/svg"
   xmlns:sodipodi="http://sodipodi.sourceforge.net/DTD/sodipodi-0.dtd"
   xmlns:inkscape="http://www.inkscape.org/namespaces/inkscape"
   version="1.1"
   id="Layer_1"
   x="0px"
   y="0px"
   viewBox="0 0 295.996 295.996"
   style="enable-background:new 0 0 295.996 295.996;"
   xml:space="preserve"
   sodipodi:docname="disadvantage_roll.svg"
   inkscape:version="1.0.1 (3bc2e813f5, 2020-09-07)"><metadata
   id="metadata59"><rdf:RDF><cc:Work
       rdf:about=""><dc:format>image/svg+xml</dc:format><dc:type
         rdf:resource="http://purl.org/dc/dcmitype/StillImage" /><dc:title></dc:title></cc:Work></rdf:RDF></metadata><defs
   id="defs57" /><sodipodi:namedview
   pagecolor="#ff76e4"
   bordercolor="#666666"
   borderopacity="1"
   objecttolerance="10"
   gridtolerance="10"
   guidetolerance="10"
   inkscape:pageopacity="0"
   inkscape:pageshadow="2"
   inkscape:window-width="3440"
   inkscape:window-height="1361"
   id="namedview55"
   showgrid="false"
   inkscape:pagecheckerboard="true"
   inkscape:zoom="3.4054514"
   inkscape:cx="147.998"
   inkscape:cy="136.25213"
   inkscape:window-x="2391"
   inkscape:window-y="-9"
   inkscape:window-maximized="1"
   inkscape:current-layer="g22" />
<g
   id="g22">
	
	
	
	
	
	<g
   id="g886"><path
     style="fill:#ffffff;fill-opacity:1"
     d="m 287.44022,132.22011 c 0,-11.334 -9.87876,-34.681166 -12.42276,-45.232166 -7.269,-15.153 -29.09587,-37.224758 -41.30387,-48.512758 -22.391,-13.376 -67.5594,-28.00717 -95.5644,-26.98617 -77.267996,2.816 -126.756063,70.675468 -123.940063,147.942464 0.413,11.304 7.161996,41.61969 10.078996,52.05369 13.350524,23.46223 42.587095,41.7314 52.124095,51.2134 21.892,14.189 49.164592,26.84471 77.196592,26.84471 77.318,0 133.83141,-80.00517 133.83141,-157.32317 z M 213.497,122.998 c 0,8.836 -7.164,16 -16,16 -8.836,0 -16,-7.164 -16,-16 0,-8.836 7.164,-16 16,-16 8.836,0 16,7.164 16,16 z M 190.773,68.14 200.148,81.107 174.215,99.855 164.84,86.888 Z m -85.89,0 25.933,18.748 -9.375,12.967 -25.933,-18.749 z m -6.386,38.858 c 8.836,0 16,7.164 16,16 0,8.836 -7.164,16 -16,16 -8.836,0 -16,-7.164 -16,-16 0,-8.836 7.164,-16 16,-16 z M 58,147.997 h 179.994 c 0,49.704 -40.293,89.998 -89.996,89.998 C 98.293,237.995 58,197.701 58,147.997 Z"
     id="path2"
     sodipodi:nodetypes="sccccccsssssssccccccccccsssssccsc" /><path
     d="M147.998,0C66.392,0,0,66.392,0,147.998s66.392,147.998,147.998,147.998s147.998-66.392,147.998-147.998   S229.604,0,147.998,0z M147.998,279.996c-36.257,0-69.143-14.696-93.022-38.44c-9.536-9.482-17.631-20.41-23.934-32.42   C21.442,190.847,16,170.048,16,147.998C16,75.214,75.214,16,147.998,16c34.523,0,65.987,13.328,89.533,35.102   c12.208,11.288,22.289,24.844,29.558,39.997c8.27,17.238,12.907,36.537,12.907,56.899   C279.996,220.782,220.782,279.996,147.998,279.996z"
     id="path8"
     style="fill:#ffffff;fill-opacity:1" /></g>
	
	
	
	
</g>
<g
   id="g24">
</g>
<g
   id="g26">
</g>
<g
   id="g28">
</g>
<g
   id="g30">
</g>
<g
   id="g32">
</g>
<g
   id="g34">
</g>
<g
   id="g36">
</g>
<g
   id="g38">
</g>
<g
   id="g40">
</g>
<g
   id="g42">
</g>
<g
   id="g44">
</g>
<g
   id="g46">
</g>
<g
   id="g48">
</g>
<g
   id="g50">
</g>
<g
   id="g52">
</g>
</svg>
