<?xml version="1.0" encoding="UTF-8" standalone="no"?>
<svg
   xmlns:dc="http://purl.org/dc/elements/1.1/"
   xmlns:cc="http://creativecommons.org/ns#"
   xmlns:rdf="http://www.w3.org/1999/02/22-rdf-syntax-ns#"
   xmlns:svg="http://www.w3.org/2000/svg"
   xmlns="http://www.w3.org/2000/svg"
   xmlns:sodipodi="http://sodipodi.sourceforge.net/DTD/sodipodi-0.dtd"
   xmlns:inkscape="http://www.inkscape.org/namespaces/inkscape"
   width="512px"
   height="512px"
   viewBox="0 0 512 512"
   version="1.1"
   id="svg845"
   sodipodi:docname="regen_all.svg"
   inkscape:version="1.0.1 (3bc2e813f5, 2020-09-07)">
  <metadata
     id="metadata851">
    <rdf:RDF>
      <cc:Work
         rdf:about="">
        <dc:format>image/svg+xml</dc:format>
        <dc:type
           rdf:resource="http://purl.org/dc/dcmitype/StillImage" />
        <dc:title></dc:title>
      </cc:Work>
    </rdf:RDF>
  </metadata>
  <defs
     id="defs849" />
  <sodipodi:namedview
     pagecolor="#fe76ff"
     bordercolor="#666666"
     borderopacity="1"
     objecttolerance="10"
     gridtolerance="10"
     guidetolerance="10"
     inkscape:pageopacity="0"
     inkscape:pageshadow="2"
     inkscape:window-width="3440"
     inkscape:window-height="1361"
     id="namedview847"
     showgrid="false"
     inkscape:pagecheckerboard="true"
     inkscape:zoom="1.6034199"
     inkscape:cx="347.45338"
     inkscape:cy="216.33103"
     inkscape:window-x="2391"
     inkscape:window-y="-9"
     inkscape:window-maximized="1"
     inkscape:current-layer="svg845"
     inkscape:document-rotation="0"
     inkscape:snap-bbox="false"
     inkscape:snap-global="true" />
  <g
     id="g3016"
     transform="matrix(2.4329563,0,0,2.4329563,5.0004139,4.9979809)"
     style="stroke-width:1.00001796;stroke-miterlimit:4;stroke-dasharray:none;stroke:none;stroke-opacity:1;fill:#00ff00;fill-opacity:1">
    <path
       d="m 206.333,76.952 c 0,25.365 -13.967,46.069 -42.7,63.297 -36.253,21.737 -54.063,47.905 -54.239,48.167 -1.393,2.076 -3.729,3.321 -6.228,3.321 -2.497,0 -4.83,-1.243 -6.223,-3.314 C 96.671,188.02 78.66,161.81 42.7,140.249 13.967,123.021 0,102.316 0,76.952 0,46.724 19.701,14.598 56.211,14.598 c 24.457,0 39.282,10.829 46.956,18.941 7.674,-8.113 22.499,-18.941 46.956,-18.941 36.51,-0.001 56.21,32.126 56.21,62.354 z"
       id="path2961"
       style="fill:#00ff00;fill-opacity:1;stroke:none;stroke-width:1.00002;stroke-miterlimit:4;stroke-dasharray:none;stroke-opacity:1" />
    <g
       id="g2963"
       style="stroke-width:1.00001796;stroke-miterlimit:4;stroke-dasharray:none;stroke:none;stroke-opacity:1;fill:#00ff00;fill-opacity:1">
</g>
    <g
       id="g2965"
       style="stroke-width:1.00001796;stroke-miterlimit:4;stroke-dasharray:none;stroke:none;stroke-opacity:1;fill:#00ff00;fill-opacity:1">
</g>
    <g
       id="g2967"
       style="stroke-width:1.00001796;stroke-miterlimit:4;stroke-dasharray:none;stroke:none;stroke-opacity:1;fill:#00ff00;fill-opacity:1">
</g>
    <g
       id="g2969"
       style="stroke-width:1.00001796;stroke-miterlimit:4;stroke-dasharray:none;stroke:none;stroke-opacity:1;fill:#00ff00;fill-opacity:1">
</g>
    <g
       id="g2971"
       style="stroke-width:1.00001796;stroke-miterlimit:4;stroke-dasharray:none;stroke:none;stroke-opacity:1;fill:#00ff00;fill-opacity:1">
</g>
    <g
       id="g2973"
       style="stroke-width:1.00001796;stroke-miterlimit:4;stroke-dasharray:none;stroke:none;stroke-opacity:1;fill:#00ff00;fill-opacity:1">
</g>
    <g
       id="g2975"
       style="stroke-width:1.00001796;stroke-miterlimit:4;stroke-dasharray:none;stroke:none;stroke-opacity:1;fill:#00ff00;fill-opacity:1">
</g>
    <g
       id="g2977"
       style="stroke-width:1.00001796;stroke-miterlimit:4;stroke-dasharray:none;stroke:none;stroke-opacity:1;fill:#00ff00;fill-opacity:1">
</g>
    <g
       id="g2979"
       style="stroke-width:1.00001796;stroke-miterlimit:4;stroke-dasharray:none;stroke:none;stroke-opacity:1;fill:#00ff00;fill-opacity:1">
</g>
    <g
       id="g2981"
       style="stroke-width:1.00001796;stroke-miterlimit:4;stroke-dasharray:none;stroke:none;stroke-opacity:1;fill:#00ff00;fill-opacity:1">
</g>
    <g
       id="g2983"
       style="stroke-width:1.00001796;stroke-miterlimit:4;stroke-dasharray:none;stroke:none;stroke-opacity:1;fill:#00ff00;fill-opacity:1">
</g>
    <g
       id="g2985"
       style="stroke-width:1.00001796;stroke-miterlimit:4;stroke-dasharray:none;stroke:none;stroke-opacity:1;fill:#00ff00;fill-opacity:1">
</g>
    <g
       id="g2987"
       style="stroke-width:1.00001796;stroke-miterlimit:4;stroke-dasharray:none;stroke:none;stroke-opacity:1;fill:#00ff00;fill-opacity:1">
</g>
    <g
       id="g2989"
       style="stroke-width:1.00001796;stroke-miterlimit:4;stroke-dasharray:none;stroke:none;stroke-opacity:1;fill:#00ff00;fill-opacity:1">
</g>
    <g
       id="g2991"
       style="stroke-width:1.00001796;stroke-miterlimit:4;stroke-dasharray:none;stroke:none;stroke-opacity:1;fill:#00ff00;fill-opacity:1">
</g>
  </g>
  <g
     id="g3091"
     transform="translate(97.892462,76.063692)"
     style="fill:#ffffff;fill-opacity:1">
    <g
       id="g3030"
       style="fill:#ffffff;fill-opacity:1">
	<path
   d="M 153.448,45.446 C 145.652,33.011 132.01,25.455 117.332,25.443 102.654,25.43 89,32.962 81.18,45.384 L 63.656,73.227 c -1.247,1.982 -1.655,4.379 -1.136,6.662 0.521,2.284 1.927,4.267 3.909,5.513 l 36.999,23.255 c 1.984,1.247 4.383,1.654 6.667,1.131 2.284,-0.523 4.267,-1.933 5.511,-3.919 z"
   id="path3018"
   style="fill:#ffffff;fill-opacity:1" />

	<path
   d="m 160.434,33.866 -0.022,-0.012 38.33,61.133 -4.369,2.781 c -1.07,0.681 -1.667,1.906 -1.545,3.169 0.122,1.263 0.943,2.351 2.124,2.814 l 56.054,21.997 c 1.003,0.394 2.134,0.284 3.043,-0.295 0.908,-0.579 1.486,-1.557 1.554,-2.632 l 3.794,-60.097 c 0.08,-1.267 -0.558,-2.47 -1.65,-3.116 -1.093,-0.645 -2.455,-0.623 -3.525,0.059 l -3.705,2.359 -21.845,-34.836 c -4.827,-7.7 -13.277,-12.375 -22.365,-12.375 h -74.472 c 11.677,2.045 22.104,8.883 28.599,19.051 z"
   id="path3020"
   style="fill:#ffffff;fill-opacity:1" />

	<path
   d="m 267.258,214.027 c 14.677,0.018 28.333,-7.509 36.156,-19.929 7.821,-12.419 8.712,-27.986 2.359,-41.217 l -14.248,-29.657 c -1.014,-2.111 -2.825,-3.732 -5.035,-4.507 -2.21,-0.775 -4.638,-0.64 -6.748,0.376 l -39.379,18.946 c -2.111,1.016 -3.732,2.83 -4.506,5.042 -0.773,2.212 -0.634,4.641 0.385,6.751 z"
   id="path3022"
   style="fill:#ffffff;fill-opacity:1" />

	<path
   d="m 273.342,226.105 0.022,-0.014 -72.156,-0.085 -0.029,-5.178 c -0.007,-1.269 -0.726,-2.426 -1.86,-2.995 -1.134,-0.568 -2.492,-0.452 -3.513,0.301 l -48.454,35.748 c -0.867,0.64 -1.376,1.655 -1.37,2.733 0.006,1.077 0.526,2.087 1.401,2.716 l 48.856,35.197 c 1.029,0.742 2.388,0.843 3.516,0.261 1.128,-0.582 1.834,-1.747 1.827,-3.016 l -0.025,-4.393 41.12,0.048 c 9.089,0.011 17.543,-4.654 22.38,-12.349 l 39.636,-63.048 c -7.947,8.799 -19.286,13.988 -31.351,14.074 z"
   id="path3024"
   style="fill:#ffffff;fill-opacity:1" />

	<path
   d="m 60.121,266.543 c 7.759,12.458 21.378,20.055 36.056,20.111 l 32.9,0.128 c 2.342,0.009 4.592,-0.913 6.254,-2.563 1.662,-1.65 2.6,-3.893 2.607,-6.235 l 0.141,-43.699 c 0.008,-2.343 -0.917,-4.594 -2.57,-6.255 -1.653,-1.661 -3.9,-2.597 -6.242,-2.6 l -71.294,-0.116 c -6.424,13.198 -5.612,28.77 2.148,41.229 z"
   id="path3026"
   style="fill:#ffffff;fill-opacity:1" />

	<path
   d="m 80.695,162.893 c 1.146,0.547 2.5,0.406 3.507,-0.367 1.007,-0.772 1.495,-2.045 1.263,-3.292 L 74.451,100.036 c -0.197,-1.059 -0.889,-1.96 -1.86,-2.425 -0.972,-0.465 -2.107,-0.437 -3.056,0.075 l -52.992,28.595 c -1.117,0.603 -1.801,1.781 -1.769,3.049 0.031,1.269 0.772,2.412 1.916,2.96 l 3.964,1.896 -17.992,36.973 c -3.978,8.172 -3.471,17.816 1.341,25.526 l 39.425,63.179 c -4.447,-10.989 -4.167,-23.455 1.021,-34.348 l 0.005,0.025 31.57,-64.883 z"
   id="path3028"
   style="fill:#ffffff;fill-opacity:1" />

</g>
    <g
       id="g3032"
       style="fill:#ffffff;fill-opacity:1">
</g>
    <g
       id="g3034"
       style="fill:#ffffff;fill-opacity:1">
</g>
    <g
       id="g3036"
       style="fill:#ffffff;fill-opacity:1">
</g>
    <g
       id="g3038"
       style="fill:#ffffff;fill-opacity:1">
</g>
    <g
       id="g3040"
       style="fill:#ffffff;fill-opacity:1">
</g>
    <g
       id="g3042"
       style="fill:#ffffff;fill-opacity:1">
</g>
    <g
       id="g3044"
       style="fill:#ffffff;fill-opacity:1">
</g>
    <g
       id="g3046"
       style="fill:#ffffff;fill-opacity:1">
</g>
    <g
       id="g3048"
       style="fill:#ffffff;fill-opacity:1">
</g>
    <g
       id="g3050"
       style="fill:#ffffff;fill-opacity:1">
</g>
    <g
       id="g3052"
       style="fill:#ffffff;fill-opacity:1">
</g>
    <g
       id="g3054"
       style="fill:#ffffff;fill-opacity:1">
</g>
    <g
       id="g3056"
       style="fill:#ffffff;fill-opacity:1">
</g>
    <g
       id="g3058"
       style="fill:#ffffff;fill-opacity:1">
</g>
    <g
       id="g3060"
       style="fill:#ffffff;fill-opacity:1">
</g>
  </g>
</svg>
